<svg width="89" height="12" viewBox="0 0 89 12" fill="none" xmlns="http://www.w3.org/2000/svg">
<path d="M3.165 11L0.225 0.499999H2.4L4.41 8.285L6.6 0.499999H8.37L10.575 8.285L12.585 0.499999H14.76L11.82 11H9.465L7.485 4.07L5.52 11H3.165ZM20.6768 3.5H22.6118V11H20.6768V10.115C20.0968 10.845 19.2818 11.21 18.2318 11.21C17.2318 11.21 16.3718 10.83 15.6518 10.07C14.9418 9.3 14.5868 8.36 14.5868 7.25C14.5868 6.14 14.9418 5.205 15.6518 4.445C16.3718 3.675 17.2318 3.29 18.2318 3.29C19.2818 3.29 20.0968 3.655 20.6768 4.385V3.5ZM17.1068 8.78C17.4968 9.17 17.9918 9.365 18.5918 9.365C19.1918 9.365 19.6868 9.17 20.0768 8.78C20.4768 8.38 20.6768 7.87 20.6768 7.25C20.6768 6.63 20.4768 6.125 20.0768 5.735C19.6868 5.335 19.1918 5.135 18.5918 5.135C17.9918 5.135 17.4968 5.335 17.1068 5.735C16.7168 6.125 16.5218 6.63 16.5218 7.25C16.5218 7.87 16.7168 8.38 17.1068 8.78ZM28.6564 5.36H26.9614V8.48C26.9614 8.74 27.0264 8.93 27.1564 9.05C27.2864 9.17 27.4764 9.24 27.7264 9.26C27.9764 9.27 28.2864 9.265 28.6564 9.245V11C27.3264 11.15 26.3864 11.025 25.8364 10.625C25.2964 10.225 25.0264 9.51 25.0264 8.48V5.36H23.7214V3.5H25.0264V1.985L26.9614 1.4V3.5H28.6564V5.36ZM33.3564 11.21C32.2264 11.21 31.2814 10.83 30.5214 10.07C29.7714 9.31 29.3964 8.37 29.3964 7.25C29.3964 6.13 29.7714 5.19 30.5214 4.43C31.2814 3.67 32.2264 3.29 33.3564 3.29C34.0864 3.29 34.7514 3.465 35.3514 3.815C35.9514 4.165 36.4064 4.635 36.7164 5.225L35.0514 6.2C34.9014 5.89 34.6714 5.645 34.3614 5.465C34.0614 5.285 33.7214 5.195 33.3414 5.195C32.7614 5.195 32.2814 5.39 31.9014 5.78C31.5214 6.16 31.3314 6.65 31.3314 7.25C31.3314 7.84 31.5214 8.33 31.9014 8.72C32.2814 9.1 32.7614 9.29 33.3414 9.29C33.7314 9.29 34.0764 9.205 34.3764 9.035C34.6864 8.855 34.9164 8.61 35.0664 8.3L36.7464 9.26C36.4164 9.85 35.9514 10.325 35.3514 10.685C34.7514 11.035 34.0864 11.21 33.3564 11.21ZM41.9398 3.29C42.7598 3.29 43.4348 3.565 43.9648 4.115C44.5048 4.665 44.7748 5.425 44.7748 6.395V11H42.8398V6.635C42.8398 6.135 42.7048 5.755 42.4348 5.495C42.1648 5.225 41.8048 5.09 41.3548 5.09C40.8548 5.09 40.4548 5.245 40.1548 5.555C39.8548 5.865 39.7048 6.33 39.7048 6.95V11H37.7698V0.499999H39.7048V4.34C40.1748 3.64 40.9198 3.29 41.9398 3.29ZM52.862 11L49.337 0.499999H51.587L54.152 8.57L56.702 0.499999H58.967L55.427 11H52.862ZM60.5559 2.6C60.2359 2.6 59.9559 2.485 59.7159 2.255C59.4859 2.015 59.3709 1.735 59.3709 1.415C59.3709 1.095 59.4859 0.815 59.7159 0.574999C59.9559 0.334999 60.2359 0.214999 60.5559 0.214999C60.8859 0.214999 61.1659 0.334999 61.3959 0.574999C61.6359 0.815 61.7559 1.095 61.7559 1.415C61.7559 1.735 61.6359 2.015 61.3959 2.255C61.1659 2.485 60.8859 2.6 60.5559 2.6ZM59.5959 11V3.5H61.5309V11H59.5959ZM68.987 0.499999H70.922V11H68.987V10.115C68.417 10.845 67.607 11.21 66.557 11.21C65.547 11.21 64.682 10.83 63.962 10.07C63.252 9.3 62.897 8.36 62.897 7.25C62.897 6.14 63.252 5.205 63.962 4.445C64.682 3.675 65.547 3.29 66.557 3.29C67.607 3.29 68.417 3.655 68.987 4.385V0.499999ZM65.417 8.78C65.817 9.17 66.317 9.365 66.917 9.365C67.517 9.365 68.012 9.17 68.402 8.78C68.792 8.38 68.987 7.87 68.987 7.25C68.987 6.63 68.792 6.125 68.402 5.735C68.012 5.335 67.517 5.135 66.917 5.135C66.317 5.135 65.817 5.335 65.417 5.735C65.027 6.125 64.832 6.63 64.832 7.25C64.832 7.87 65.027 8.38 65.417 8.78ZM74.3266 8.045C74.5866 8.985 75.2916 9.455 76.4416 9.455C77.1816 9.455 77.7416 9.205 78.1216 8.705L79.6816 9.605C78.9416 10.675 77.8516 11.21 76.4116 11.21C75.1716 11.21 74.1766 10.835 73.4266 10.085C72.6766 9.335 72.3016 8.39 72.3016 7.25C72.3016 6.12 72.6716 5.18 73.4116 4.43C74.1516 3.67 75.1016 3.29 76.2616 3.29C77.3616 3.29 78.2666 3.67 78.9766 4.43C79.6966 5.19 80.0566 6.13 80.0566 7.25C80.0566 7.5 80.0316 7.765 79.9816 8.045H74.3266ZM74.2966 6.545H78.1216C78.0116 6.035 77.7816 5.655 77.4316 5.405C77.0916 5.155 76.7016 5.03 76.2616 5.03C75.7416 5.03 75.3116 5.165 74.9716 5.435C74.6316 5.695 74.4066 6.065 74.2966 6.545ZM87.7389 10.07C86.9689 10.83 86.0289 11.21 84.9189 11.21C83.8089 11.21 82.8689 10.83 82.0989 10.07C81.3389 9.3 80.9589 8.36 80.9589 7.25C80.9589 6.14 81.3389 5.205 82.0989 4.445C82.8689 3.675 83.8089 3.29 84.9189 3.29C86.0289 3.29 86.9689 3.675 87.7389 4.445C88.5089 5.205 88.8939 6.14 88.8939 7.25C88.8939 8.36 88.5089 9.3 87.7389 10.07ZM83.4639 8.735C83.8539 9.125 84.3389 9.32 84.9189 9.32C85.4989 9.32 85.9839 9.125 86.3739 8.735C86.7639 8.345 86.9589 7.85 86.9589 7.25C86.9589 6.65 86.7639 6.155 86.3739 5.765C85.9839 5.375 85.4989 5.18 84.9189 5.18C84.3389 5.18 83.8539 5.375 83.4639 5.765C83.0839 6.155 82.8939 6.65 82.8939 7.25C82.8939 7.85 83.0839 8.345 83.4639 8.735Z" fill="#AAAAAA"/>
</svg>
